<?xml version="1.0" standalone="no"?>
<!DOCTYPE svg PUBLIC "-//W3C//DTD SVG 20010904//EN"
 "http://www.w3.org/TR/2001/REC-SVG-20010904/DTD/svg10.dtd">
<svg version="1.0" xmlns="http://www.w3.org/2000/svg"
 width="752.000000pt" height="752.000000pt" viewBox="0 0 752.000000 752.000000"
 preserveAspectRatio="xMidYMid meet">

<g transform="translate(0.000000,752.000000) scale(0.100000,-0.100000)"
fill="white" stroke="none">
<path d="M3575 5879 c-638 -86 -1146 -599 -1224 -1234 -15 -123 -15 -1647 0
-1770 108 -881 1005 -1451 1851 -1174 522 170 900 631 968 1179 14 118 14
1645 -1 1765 -73 597 -526 1091 -1114 1215 -116 24 -369 34 -480 19z m476
-212 c321 -84 567 -259 746 -533 91 -140 150 -296 178 -467 22 -136 22 -1678
0 -1814 -41 -255 -162 -490 -345 -673 -93 -93 -246 -201 -352 -249 -683 -306
-1469 42 -1693 750 -54 171 -55 196 -55 1079 0 893 1 910 60 1093 141 438 526
764 986 837 32 5 131 7 219 5 130 -3 178 -8 256 -28z"/>
<path d="M3705 5221 c-84 -22 -146 -83 -171 -168 -30 -103 19 -219 115 -270
33 -17 60 -23 111 -23 82 0 140 27 187 88 111 146 19 357 -163 376 -27 3 -62
1 -79 -3z"/>
<path d="M3388 3942 c-308 -307 -338 -340 -338 -370 0 -48 46 -92 96 -92 36 0
49 11 274 235 129 129 239 235 243 235 4 0 7 -371 7 -825 l0 -826 25 -24 c34
-35 96 -35 130 0 l25 24 0 826 c0 454 3 825 7 825 4 0 114 -106 243 -235 225
-224 238 -235 274 -235 50 0 96 44 96 92 0 30 -30 63 -338 370 -313 314 -340
338 -372 338 -32 0 -59 -24 -372 -338z"/>
</g>
</svg>
